<svg xmlns="http://www.w3.org/2000/svg" xmlns:xlink="http://www.w3.org/1999/xlink" id="Group_255" width="54.549" height="54.549" data-name="Group 255" viewBox="0 0 36.253 54.549"><defs><clipPath id="clip-path"><rect id="Rectangle_180" width="36.253" height="54.549" fill="#eb2055" data-name="Rectangle 180"/></clipPath></defs><g id="Group_250" clip-path="url(#clip-path)" data-name="Group 250"><path id="Path_70" fill="#eb2055" d="M18.273,4.266A1.061,1.061,0,0,0,18.2,6.388a1.061,1.061,0,1,0,.077-2.122M29.011,9.539a13.574,13.574,0,0,0-6.078-4.414,1.08,1.08,0,0,0-1.56.842c-.062.53.252.921.93,1.191a11.35,11.35,0,0,1,6.938,7.3,21.226,21.226,0,0,1,.609,3.706,1.142,1.142,0,0,0,1.07,1.106,1.082,1.082,0,0,0,1.066-1.1c.007-.16,0-.319,0-.554a13.779,13.779,0,0,0-2.977-8.079m-10.874,13.9a5.326,5.326,0,1,0-5.323-5.315,5.345,5.345,0,0,0,5.323,5.315m7.46-5.351a7.458,7.458,0,1,1-7.469-7.433A7.475,7.475,0,0,1,25.6,18.087M18.13,52.447c.986-.057,2.654-.107,4.314-.257a28.258,28.258,0,0,0,7.564-1.663,9.376,9.376,0,0,0,3.336-1.935,1.8,1.8,0,0,0-.017-2.978A8.995,8.995,0,0,0,31.5,44.342a23.527,23.527,0,0,0-8-2.234.794.794,0,0,0-.585.312c-1.25,1.658-2.479,3.333-3.708,5.007-.719.98-1.427.977-2.145,0C15.84,45.746,14.6,44.08,13.381,42.4a.621.621,0,0,0-.714-.294c-1.645.353-3.31.628-4.933,1.061A11.108,11.108,0,0,0,3.1,45.461C1.827,46.6,1.8,47.7,3.144,48.753A11.757,11.757,0,0,0,5.933,50.37c3.682,1.506,7.575,1.928,12.2,2.076m0-7.213c.128-.155.218-.258.3-.367,2.128-2.8,4.272-5.579,6.377-8.393s4.292-5.613,6.249-8.546a16.978,16.978,0,0,0,2.872-12.3A16.02,16.02,0,1,0,3.277,24.221,30.5,30.5,0,0,0,7.638,31.5c3.178,4.182,6.393,8.337,9.589,12.506.3.39.581.791.9,1.226M15.9,54.549c-1.055-.107-2.114-.191-3.166-.325a24.6,24.6,0,0,1-9.283-2.684,9.926,9.926,0,0,1-2.46-1.991,3.609,3.609,0,0,1-.044-4.908,9.787,9.787,0,0,1,4.032-2.775,28.068,28.068,0,0,1,6.6-1.757c-.161-.222-.285-.4-.416-.57C8.8,36.412,6.378,33.33,4.089,30.148A21.394,21.394,0,0,1,.3,21.447,18.231,18.231,0,0,1,14.562.355C15.287.208,16.024.117,16.754,0h2.664c1.166.213,2.352.35,3.494.653A18.136,18.136,0,0,1,36.174,16.476a19.886,19.886,0,0,1-3.267,12.583c-2.089,3.332-4.592,6.355-6.987,9.458-.389.5-.781,1-1.222,1.572.753.143,1.442.262,2.124.406A22.487,22.487,0,0,1,32.256,42.3a9.161,9.161,0,0,1,2.9,2.125,3.778,3.778,0,0,1-.018,5.34,11.151,11.151,0,0,1-4.716,2.887,33.344,33.344,0,0,1-9.157,1.79c-.3.022-.593.069-.89.1Z" data-name="Path 70" transform="translate(0)"/></g></svg>