<svg xmlns="http://www.w3.org/2000/svg" xmlns:xlink="http://www.w3.org/1999/xlink" id="Group_10" width="143.333" height="59.73" data-name="Group 10" viewBox="0 0 143.333 59.73"><defs><clipPath id="clip-path"><rect id="Rectangle_5" width="143.333" height="59.73" fill="none" data-name="Rectangle 5"/></clipPath><clipPath id="clip-path-2"><path id="Path_40" fill="none" d="M144.037,4.8a19.36,19.36,0,0,0-5.468,5.155,24.8,24.8,0,0,0-2.521,4.8,19.457,19.457,0,0,0,3.51,18.931c10.6-1.532,16.747-11.074,16.8-11.169l.291-.445a47.36,47.36,0,0,1,7.276,5.444c.361.336.709.65,1.025.933.234.2.481.282.616.115.074-.1.3-.5.027-1.66a34.187,34.187,0,0,0-5.255-11.44l0,0-.061-.082c-.418-.583-.831-1.126-1.244-1.626a21.343,21.343,0,0,0-1.532-1.669,32.005,32.005,0,0,0-12.269-7.352,1.9,1.9,0,0,0-.576-.1,1.234,1.234,0,0,0-.623.164" data-name="Path 40" transform="translate(-134.975 -4.634)"/></clipPath><linearGradient id="linear-gradient" x1="-1.113" x2="-1.104" y1="2.119" y2="2.119" gradientUnits="objectBoundingBox"><stop offset="0" stop-color="#231f20"/><stop offset=".143" stop-color="#3d3a3b"/><stop offset=".557" stop-color="#878687"/><stop offset=".853" stop-color="#b5b5b7"/><stop offset="1" stop-color="#c7c8ca"/></linearGradient></defs><g id="Group_7" data-name="Group 7"><g id="Group_6" clip-path="url(#clip-path)" data-name="Group 6"><path id="Path_21" fill="#222" d="M4.1,186.153a.3.3,0,0,1,.214.083.3.3,0,0,1,.085.218.294.294,0,0,1-.085.214.284.284,0,0,1-.214.086H.612v3.139h2.58a.284.284,0,0,1,.214.088.313.313,0,0,1,.088.219.266.266,0,0,1-.088.2.289.289,0,0,1-.214.083H.612v3.5a.31.31,0,0,1-.085.216.314.314,0,0,1-.213.082A.317.317,0,0,1,.1,194.2a.289.289,0,0,1-.09-.216v-7.545a.414.414,0,0,1,.075-.2.265.265,0,0,1,.233-.093Z" data-name="Path 21" transform="translate(-0.005 -134.557)"/><path id="Path_22" fill="#222" d="M.006.586V.179H13.595a26.289,26.289,0,0,1,5.263.489A22.626,22.626,0,0,1,23.17,1.974a18.572,18.572,0,0,1,3.3,1.785,15.626,15.626,0,0,1,2.347,1.98,17.608,17.608,0,0,1,2.851,3.724,17.336,17.336,0,0,1,1.763,4.328,18.708,18.708,0,0,1,.588,4.7,18.027,18.027,0,0,1-.576,4.6,16.1,16.1,0,0,1-1.653,4.036,16.47,16.47,0,0,1-2.576,3.366,18.54,18.54,0,0,1-3.486,2.735,16.4,16.4,0,0,1-3.909,1.631,22.7,22.7,0,0,1-5.966.624H.006V35.1H.484a2.748,2.748,0,0,0,2.469-1.246,4.74,4.74,0,0,0,.818-2.638V4.564a5.128,5.128,0,0,0-.443-2.251A2.865,2.865,0,0,0,2.141.994,3.369,3.369,0,0,0,.484.586ZM7.414,1.853v27.97a5.488,5.488,0,0,0,.657,3.031,3.12,3.12,0,0,0,2.05,1.259A21.619,21.619,0,0,0,14.2,34.4a24,24,0,0,0,6.471-.753,11.521,11.521,0,0,0,5.1-3.369,14.731,14.731,0,0,0,2.923-4.745,18.519,18.519,0,0,0,1.1-6.782,22.37,22.37,0,0,0-.886-6.219A16.562,16.562,0,0,0,26.2,7.055a14.04,14.04,0,0,0-5.236-4.24,17.667,17.667,0,0,0-7.706-1.532,37.684,37.684,0,0,0-5.846.57" data-name="Path 22" transform="translate(-0.004 -0.129)"/><path id="Path_23" fill="#222" d="M294.859,7.407h-.368a7.36,7.36,0,0,0-2.144-4.3,6.47,6.47,0,0,0-4.809-1.845,6.544,6.544,0,0,0-3.465.919,6.224,6.224,0,0,0-2.341,2.5,7.754,7.754,0,0,0-.827,3.628,7.47,7.47,0,0,0,.494,2.814,6.272,6.272,0,0,0,1.456,2.169,13.129,13.129,0,0,0,2.274,1.756q1.308.814,3.535,2.055a26.251,26.251,0,0,1,5.783,4.075,7.445,7.445,0,0,1,2.067,5.563A8.481,8.481,0,0,1,295.4,30.9a8.589,8.589,0,0,1-3.359,3.294,11.129,11.129,0,0,1-5.582,1.287,13.516,13.516,0,0,1-3.692-.453,19.009,19.009,0,0,1-3.261-1.248,3.631,3.631,0,0,0-.939-.228.617.617,0,0,0-.634.343,10.337,10.337,0,0,0-.4,1.493h-.389V26.919h.389a9.556,9.556,0,0,0,3.213,5.624,9.018,9.018,0,0,0,5.807,1.906,7.721,7.721,0,0,0,4.122-.966,5.231,5.231,0,0,0,2.145-2.339,6.882,6.882,0,0,0,.6-2.755,6.441,6.441,0,0,0-1.731-4.648,21.389,21.389,0,0,0-5.27-3.684q-2.43-1.33-3.6-2.065a14.672,14.672,0,0,1-2.376-1.907,8.789,8.789,0,0,1-1.915-2.765,8.915,8.915,0,0,1-.713-3.661A8.979,8.979,0,0,1,279.07,5.09a9.433,9.433,0,0,1,3.579-3.5A10.413,10.413,0,0,1,287.907.27a14.817,14.817,0,0,1,4.565.759,2.2,2.2,0,0,0,.986.185c.5,0,.851-.345,1.033-1.034h.368Z" data-name="Path 23" transform="translate(-200.326 -0.13)"/><path id="Path_24" fill="#222" d="M385.58,8.4h-.365q-.254-3.287-1.92-4.259a8.057,8.057,0,0,0-4.109-.972H372.5V31.417q0,3.582,3.652,3.7v.368H365.439v-.368a4.128,4.128,0,0,0,2.546-.878,3.42,3.42,0,0,0,1.04-2.82V3.168h-6.689a8,8,0,0,0-4.1.972q-1.656.972-1.931,4.259h-.365V.18h.365a5.071,5.071,0,0,0,.642.842,2.29,2.29,0,0,0,.708.471,3.744,3.744,0,0,0,1.014.271,9.979,9.979,0,0,0,1.384.081h21.783A3.946,3.946,0,0,0,385.215.18h.365Z" data-name="Path 24" transform="translate(-257.285 -0.13)"/><path id="Path_25" fill="#222" d="M487.945.18V.587a4.13,4.13,0,0,0-2.683.886,3.564,3.564,0,0,0-1.1,2.948V31.214a3.538,3.538,0,0,0,1.172,2.96,4.129,4.129,0,0,0,2.613.924v.384H476.752V35.1a4.09,4.09,0,0,0,2.648-.9,3.618,3.618,0,0,0,1.115-2.985V4.42A3.511,3.511,0,0,0,479.4,1.4a4.355,4.355,0,0,0-2.648-.816V.18Z" data-name="Path 25" transform="translate(-344.612 -0.13)"/><rect id="Rectangle_4" width="143.32" height="1.418" fill="#222" data-name="Rectangle 4" transform="translate(0 42.761)"/><path id="Path_26" fill="#222" d="M38.6,189.278a2.2,2.2,0,0,1-.427.684,2.454,2.454,0,0,1-.646.484,2.551,2.551,0,0,1-.808.249l1.989,3.133a.292.292,0,0,1,.024.252.279.279,0,0,1-.164.176.271.271,0,0,1-.224.012.308.308,0,0,1-.17-.137l-2.144-3.418h-1.49v3.27a.3.3,0,0,1-.086.214.282.282,0,0,1-.213.085.294.294,0,0,1-.216-.085.289.289,0,0,1-.088-.214v-7.53a.287.287,0,0,1,.088-.216.3.3,0,0,1,.216-.083h2.135a2.439,2.439,0,0,1,.935.172,2.259,2.259,0,0,1,1.264,1.2,2.265,2.265,0,0,1,.181.914,2.184,2.184,0,0,1-.156.842m-4.061-2.528v3.36h1.85a1.817,1.817,0,0,0,.7-.136,1.883,1.883,0,0,0,.56-.366,1.708,1.708,0,0,0,.368-.533,1.613,1.613,0,0,0,.132-.648,1.624,1.624,0,0,0-.511-1.2,1.7,1.7,0,0,0-.567-.352,1.927,1.927,0,0,0-.706-.126Z" data-name="Path 26" transform="translate(-24.532 -134.557)"/><path id="Path_27" fill="#222" d="M71.462,193.988a.3.3,0,0,1-.085.216.308.308,0,0,1-.215.082.311.311,0,0,1-.215-.082.3.3,0,0,1-.09-.216v-7.535a.291.291,0,0,1,.09-.217.3.3,0,0,1,.215-.083.3.3,0,0,1,.215.083.292.292,0,0,1,.085.217Z" data-name="Path 27" transform="translate(-51.218 -134.557)"/><path id="Path_28" fill="#222" d="M93.965,194.286a.294.294,0,0,1-.2-.1.321.321,0,0,1-.075-.216v-7.516a.272.272,0,0,1,.094-.22.316.316,0,0,1,.223-.081h3.723a.29.29,0,0,1,.3.3.285.285,0,0,1-.086.214.279.279,0,0,1-.215.086H94.29v3.174h2.562a.257.257,0,0,1,.211.082.294.294,0,0,1,.086.216.268.268,0,0,1-.086.21.3.3,0,0,1-.211.082H94.29v3.167h3.437a.278.278,0,0,1,.215.085.287.287,0,0,1,.086.214.325.325,0,0,1-.086.222.259.259,0,0,1-.215.082Z" data-name="Path 28" transform="translate(-67.72 -134.557)"/><path id="Path_29" fill="#222" d="M129,187.371v6.617a.3.3,0,0,1-.087.217.3.3,0,0,1-.212.082.313.313,0,0,1-.215-.082.3.3,0,0,1-.094-.217v-7.534a.279.279,0,0,1,.094-.21.291.291,0,0,1,.215-.09l.028.008.029,0,.018.006.016,0a.253.253,0,0,1,.132.092l.02.011,4.732,6.786v-6.607a.285.285,0,0,1,.086-.214.291.291,0,0,1,.22-.087.269.269,0,0,1,.209.087.3.3,0,0,1,.087.214v7.534a.3.3,0,0,1-.235.293l-.021.005h-.069a.352.352,0,0,1-.172-.066l-.049-.053Z" data-name="Path 29" transform="translate(-92.807 -134.557)"/><path id="Path_30" fill="#222" d="M171.028,186.153a4.369,4.369,0,0,1,1.1.139,4.15,4.15,0,0,1,.987.409,4.285,4.285,0,0,1,.839.631,4.114,4.114,0,0,1,.647.82,4.206,4.206,0,0,1,.413.979,3.879,3.879,0,0,1,.152,1.095,3.953,3.953,0,0,1-.325,1.6,4.131,4.131,0,0,1-3.809,2.462h-1.359a.315.315,0,0,1-.216-.082.3.3,0,0,1-.088-.216v-7.536a.286.286,0,0,1,.088-.216.3.3,0,0,1,.216-.083Zm3.539,4.073a3.441,3.441,0,0,0-1.034-2.467,3.609,3.609,0,0,0-2.5-1h-1.057v6.931h1.057a3.624,3.624,0,0,0,1.374-.264,3.573,3.573,0,0,0,1.128-.731,3.4,3.4,0,0,0,.755-1.1,3.359,3.359,0,0,0,.279-1.368" data-name="Path 30" transform="translate(-122.428 -134.557)"/><path id="Path_31" fill="#222" d="M210.032,189.964a3.324,3.324,0,0,1-.747-.4,2.184,2.184,0,0,1-.554-.577,1.514,1.514,0,0,1-.215-.819,1.686,1.686,0,0,1,.213-.849,2,2,0,0,1,.55-.636,2.656,2.656,0,0,1,.762-.395,2.752,2.752,0,0,1,.842-.136,2.937,2.937,0,0,1,1.327.295,2.1,2.1,0,0,1,.931.862.207.207,0,0,1,.021.178.3.3,0,0,1-.083.14.317.317,0,0,1-.171.071.292.292,0,0,1-.211-.079,2.032,2.032,0,0,0-.821-.682,2.5,2.5,0,0,0-.99-.189,2.366,2.366,0,0,0-.605.085,2,2,0,0,0-.571.267,1.488,1.488,0,0,0-.426.443,1.152,1.152,0,0,0-.175.626,1.008,1.008,0,0,0,.089.436,1.143,1.143,0,0,0,.246.337,1.658,1.658,0,0,0,.348.257,2.943,2.943,0,0,0,.41.2c.141.053.277.1.419.142s.271.082.39.115c.316.1.625.215.922.342a3.62,3.62,0,0,1,.794.448,2.042,2.042,0,0,1,.555.618,1.685,1.685,0,0,1,.207.858,2.2,2.2,0,0,1-.214.983,2.378,2.378,0,0,1-.579.747,2.515,2.515,0,0,1-.833.475,2.906,2.906,0,0,1-.978.164,3.086,3.086,0,0,1-.833-.116,3.182,3.182,0,0,1-.75-.316,2.673,2.673,0,0,1-.6-.481,2.18,2.18,0,0,1-.393-.6.287.287,0,0,1-.021-.252.356.356,0,0,1,.153-.156c.136-.071.268-.018.4.152a1.659,1.659,0,0,0,.333.481,2.269,2.269,0,0,0,.489.372,2.838,2.838,0,0,0,.6.236,2.617,2.617,0,0,0,.657.082,2.188,2.188,0,0,0,.708-.113,1.838,1.838,0,0,0,.635-.333,1.666,1.666,0,0,0,.461-.55,1.63,1.63,0,0,0,.175-.77,1.109,1.109,0,0,0-.179-.643,1.671,1.671,0,0,0-.469-.459,3.421,3.421,0,0,0-.655-.329c-.248-.092-.5-.185-.753-.269a7.235,7.235,0,0,1-.811-.261" data-name="Path 31" transform="translate(-150.544 -134.557)"/><path id="Path_32" fill="#222" d="M275.705,186.153a.3.3,0,0,1,.214.083.306.306,0,0,1,.086.218.3.3,0,0,1-.086.214.285.285,0,0,1-.214.086h-3.493v3.139h2.582a.288.288,0,0,1,.215.088.318.318,0,0,1,.086.219.27.27,0,0,1-.086.2.293.293,0,0,1-.215.083h-2.582v3.5a.3.3,0,0,1-.083.216.3.3,0,0,1-.212.082.319.319,0,0,1-.219-.082.3.3,0,0,1-.088-.216v-7.545a.4.4,0,0,1,.075-.2.264.264,0,0,1,.232-.093Z" data-name="Path 32" transform="translate(-196.328 -134.557)"/><path id="Path_33" fill="#222" d="M307.051,186.473a4.159,4.159,0,0,1,1.294.869,4.26,4.26,0,0,1,.877,1.292,3.948,3.948,0,0,1,.318,1.579,4.049,4.049,0,0,1-.144,1.085,4.427,4.427,0,0,1-.41.972,4.051,4.051,0,0,1-.638.825,4.208,4.208,0,0,1-.821.637,4.165,4.165,0,0,1-.973.408,4.1,4.1,0,0,1-2.173,0,4.112,4.112,0,0,1-.967-.408,3.882,3.882,0,0,1-.818-.637,4.042,4.042,0,0,1-.633-.825,4.136,4.136,0,0,1-.405-.972,4.122,4.122,0,0,1,0-2.165,4.146,4.146,0,0,1,.405-.969,4.117,4.117,0,0,1,1.451-1.46,4.241,4.241,0,0,1,.967-.408,4.06,4.06,0,0,1,1.086-.142,3.944,3.944,0,0,1,1.585.32m-2.5.4a3.225,3.225,0,0,0-.827.347,3.326,3.326,0,0,0-.7.54,3.407,3.407,0,0,0-.542.7,3.333,3.333,0,0,0-.344.828,3.441,3.441,0,0,0-.125.923,3.4,3.4,0,0,0,.271,1.357,3.427,3.427,0,0,0,1.834,1.844,3.494,3.494,0,0,0,2.709,0,3.448,3.448,0,0,0,1.842-1.844,3.479,3.479,0,0,0,0-2.7,3.411,3.411,0,0,0-.741-1.1,3.5,3.5,0,0,0-1.1-.741,3.36,3.36,0,0,0-1.35-.273,3.463,3.463,0,0,0-.927.124" data-name="Path 33" transform="translate(-217.87 -134.557)"/><path id="Path_34" fill="#222" d="M354.31,189.278a2.214,2.214,0,0,1-.426.684,2.533,2.533,0,0,1-.645.484,2.587,2.587,0,0,1-.813.249l1.986,3.133a.291.291,0,0,1,.029.252.286.286,0,0,1-.162.176.272.272,0,0,1-.225.012.285.285,0,0,1-.171-.137l-2.141-3.418h-1.5v3.27a.3.3,0,0,1-.083.214.288.288,0,0,1-.213.085.3.3,0,0,1-.217-.085.29.29,0,0,1-.091-.214v-7.53a.288.288,0,0,1,.091-.216.306.306,0,0,1,.217-.083h2.131a2.47,2.47,0,0,1,.939.172,2.239,2.239,0,0,1,.756.476,2.191,2.191,0,0,1,.505.721,2.237,2.237,0,0,1,.186.914,2.288,2.288,0,0,1-.159.842m-4.064-2.528v3.36h1.85a1.8,1.8,0,0,0,.7-.136,1.856,1.856,0,0,0,.562-.366,1.645,1.645,0,0,0,.365-.533,1.584,1.584,0,0,0,.136-.648,1.6,1.6,0,0,0-.136-.664,1.664,1.664,0,0,0-.378-.535,1.7,1.7,0,0,0-.564-.352,1.941,1.941,0,0,0-.71-.126Z" data-name="Path 34" transform="translate(-252.733 -134.557)"/><path id="Path_35" fill="#222" d="M412.177,193.677h3.312a.3.3,0,0,1,.216.09.281.281,0,0,1,.09.214.331.331,0,0,1-.09.225.27.27,0,0,1-.216.082h-3.608a.218.218,0,0,1-.068-.005.293.293,0,0,1-.17-.1.311.311,0,0,1-.068-.194v-7.534a.3.3,0,0,1,.306-.3.281.281,0,0,1,.208.087.3.3,0,0,1,.087.214Z" data-name="Path 35" transform="translate(-297.5 -134.557)"/><path id="Path_36" fill="#222" d="M445.34,193.988a.289.289,0,0,1-.3.3.322.322,0,0,1-.22-.082.3.3,0,0,1-.088-.216v-7.535a.289.289,0,0,1,.088-.217.31.31,0,0,1,.22-.083.29.29,0,0,1,.21.083.294.294,0,0,1,.087.217Z" data-name="Path 36" transform="translate(-321.469 -134.557)"/><path id="Path_37" fill="#222" d="M471.643,186.153a.29.29,0,0,1,.213.083.284.284,0,0,1,.086.218.294.294,0,0,1-.3.3h-3.488v3.139h2.582a.282.282,0,0,1,.21.088.316.316,0,0,1,.085.219.268.268,0,0,1-.085.2.287.287,0,0,1-.21.083h-2.582v3.5a.287.287,0,0,1-.3.3.314.314,0,0,1-.215-.082.3.3,0,0,1-.089-.216v-7.545a.432.432,0,0,1,.075-.2.256.256,0,0,1,.229-.093Z" data-name="Path 37" transform="translate(-337.96 -134.557)"/><path id="Path_38" fill="#222" d="M501.755,194.286a.291.291,0,0,1-.205-.1.32.32,0,0,1-.075-.216v-7.516a.279.279,0,0,1,.094-.22.323.323,0,0,1,.225-.081h3.723a.293.293,0,0,1,.214.083.288.288,0,0,1,.085.218.292.292,0,0,1-.3.3h-3.438v3.174h2.56a.26.26,0,0,1,.215.082.308.308,0,0,1,.085.216.279.279,0,0,1-.085.21.3.3,0,0,1-.215.082h-2.56v3.167h3.438a.279.279,0,0,1,.214.085.283.283,0,0,1,.085.214.321.321,0,0,1-.085.222.26.26,0,0,1-.214.082Z" data-name="Path 38" transform="translate(-362.482 -134.557)"/><path id="Path_39" fill="#cf2127" d="M167.84,35.314c5.753-.213,10.387-2.567,14.3-7.354a18.613,18.613,0,0,0,.748-21.233A18.649,18.649,0,0,0,175.065.051c-.185-.081-.656-.12-.717.31a17.585,17.585,0,0,1-2.386,7.67,33.68,33.68,0,0,1,7.131,14.015,2.822,2.822,0,0,1-.219,2.481,1.243,1.243,0,0,1-1,.475,1.692,1.692,0,0,1-1.111-.449c-.3-.265-.626-.561-.972-.886a30.287,30.287,0,0,0-5.916-4.561c-1.1,1.615-6.34,8.609-15.124,10.282-.411.128-.393.5-.116.873a9.339,9.339,0,0,0,1.073.9,1.891,1.891,0,0,0,1.536.165,22.671,22.671,0,0,0,12.532-7.734l.073-.09.75.6-.073.092a21.431,21.431,0,0,1-12.354,7.643c-.96.2-.545.679-.458.755a6.555,6.555,0,0,0,2.182,1.158,6.93,6.93,0,0,0,2.127-.506,22.534,22.534,0,0,0,10.1-6.951l.074-.088.733.624-.077.091a23.136,23.136,0,0,1-8.415,6.171c-.356.167-.9.371-1.371.542-.409.151-.792.308-.971.38-.469.2-.327.454-.224.475a9.9,9.9,0,0,0,2.111.539,3.046,3.046,0,0,0,1.238-.2,22.058,22.058,0,0,0,9.972-6.168l.079-.085.7.664-.082.086c-3.45,3.608-6.46,5.076-8.769,5.736-.351.1-.286.243-.131.26a4.425,4.425,0,0,0,.859-.013" data-name="Path 39" transform="translate(-111.626 0)"/></g></g><g id="Group_9" data-name="Group 9" transform="translate(36.9 1.353)"><g id="Group_8" clip-path="url(#clip-path-2)" data-name="Group 8"><rect id="Rectangle_6" width="33.275" height="29.053" fill="url(#linear-gradient)" data-name="Rectangle 6" transform="translate(-2.378 0)"/></g></g></svg>