<svg xmlns="http://www.w3.org/2000/svg" xmlns:xlink="http://www.w3.org/1999/xlink" width="69" height="33" viewBox="0 0 69 33"><defs><clipPath id="clip-path"><rect id="Rectangle_221" width="28.313" height="10.214" fill="#eb2055" data-name="Rectangle 221"/></clipPath></defs><g id="Group_351" data-name="Group 351" transform="translate(0.241)"><g id="Group_350" data-name="Group 350" transform="translate(0)"><g id="Group_347" data-name="Group 347" transform="translate(19.294 11.072)"><g id="Group_346" data-name="Group 346"><g id="Group_345" clip-path="url(#clip-path)" data-name="Group 345"><path id="Path_173" fill="#eb2055" d="M26.224,4.408c-1.119-1.12-2.243-2.237-3.354-3.365A1.076,1.076,0,0,1,22.6.55a.434.434,0,0,1,.283-.517,1.3,1.3,0,0,1,.6.01c.093.017.171.134.249.213Q25.91,2.426,28.08,4.6a.6.6,0,0,1,0,.945Q25.9,7.725,23.721,9.9a1.209,1.209,0,0,1-.376.274.557.557,0,0,1-.659-.227.587.587,0,0,1,.033-.7,3.551,3.551,0,0,1,.25-.261l3.042-3.049c.07-.07.137-.144.259-.273H.908a2.3,2.3,0,0,1-.441-.032A.575.575,0,0,1,.434,4.515a1.716,1.716,0,0,1,.412-.036q12.506,0,25.013,0h.349l.016-.07" data-name="Path 173" transform="translate(0 -0.001)"/></g></g></g><g id="Rectangle_222" fill="none" stroke="#eb2055" stroke-width="1" data-name="Rectangle 222" transform="translate(-0.241)"><rect width="69" height="33" stroke="none" rx="16.5"/><rect width="68" height="32" x=".5" y=".5" fill="none" rx="16"/></g></g></g></svg>